<svg xmlns="http://www.w3.org/2000/svg" version="1.1" xmlns:xlink="http://www.w3.org/1999/xlink" xmlns:svgjs="http://svgjs.dev/svgjs" width="1500" height="1500" viewBox="0 0 1500 1500"><rect width="1500" height="1500" fill="#000000"></rect><g transform="matrix(0.6666666666666666,0,0,0.6666666666666666,249.39393939393938,657.2708128115597)"><svg viewBox="0 0 396 74" data-background-color="#ffffff" preserveAspectRatio="xMidYMid meet" height="280" width="1500" xmlns="http://www.w3.org/2000/svg" xmlns:xlink="http://www.w3.org/1999/xlink"><g id="tight-bounds" transform="matrix(1,0,0,1,0.2400000000000091,-0.23950079315400785)"><svg viewBox="0 0 395.52 74.47900158630803" height="74.47900158630803" width="395.52"><g><svg viewBox="0 0 519.3197625972514 97.79130618497624" height="74.47900158630803" width="395.52"><g transform="matrix(1,0,0,1,123.79976259725144,21.353191753475247)"><svg viewBox="0 0 395.52 55.08492267802574" height="55.08492267802574" width="395.52"><g id="textblocktransform"><svg viewBox="0 0 395.52 55.08492267802574" height="55.08492267802574" width="395.52" id="textblock"><g><svg viewBox="0 0 395.52 55.08492267802574" height="55.08492267802574" width="395.52"><g transform="matrix(1,0,0,1,0,0)"><svg width="395.52" viewBox="3.34 -36.23 263.63000000000005 36.72" height="55.08492267802574" data-palette-color="#2a2c35"><path d="M29.96 0L21.85 0 14.77-12.57 10.55-12.57 10.55 0 3.34 0 3.34-32.93 15.41-32.93Q21.85-32.93 25.05-30.42 28.25-27.91 28.25-23.17L28.25-23.17Q28.25-19.82 26.44-17.48 24.63-15.14 21.44-14.18L21.44-14.18 29.96 0ZM21-22.88L21-22.88Q21-25.17 19.48-26.26 17.97-27.34 14.65-27.34L14.65-27.34 10.55-27.34 10.55-18.16 14.84-18.16Q21-18.16 21-22.88ZM57.76-13.23L57.76-13.23Q57.76-6.67 54.44-3.09 51.12 0.49 44.89 0.49L44.89 0.49Q38.89 0.49 35.57-3.09 32.25-6.67 32.25-13.23L32.25-13.23Q32.25-19.78 35.54-23.34 38.84-26.9 45.04-26.9L45.04-26.9Q57.76-26.9 57.76-13.23ZM50.58-13.23L50.58-13.23Q50.58-17.92 49.34-20.06 48.09-22.19 45.14-22.19L45.14-22.19Q42.11-22.19 40.78-20.04 39.45-17.9 39.45-13.23L39.45-13.23Q39.45-8.52 40.81-6.36 42.16-4.2 44.82-4.2L44.82-4.2Q47.85-4.2 49.22-6.34 50.58-8.47 50.58-13.23ZM75.24 0.49L75.24 0.49Q69.23 0.49 65.96-3.09 62.69-6.67 62.69-13.06L62.69-13.06Q62.69-19.6 65.99-23.25 69.28-26.9 75.34-26.9L75.34-26.9Q80-26.9 83.05-24.56 86.1-22.22 86.88-18.09L86.88-18.09 79.98-17.75Q79.68-19.78 78.51-20.98 77.34-22.19 75.19-22.19L75.19-22.19Q69.89-22.19 69.89-13.33L69.89-13.33Q69.89-4.2 75.29-4.2L75.29-4.2Q77.24-4.2 78.56-5.43 79.88-6.67 80.2-9.11L80.2-9.11 87.08-8.79Q86.71-6.08 85.14-3.96 83.56-1.83 81-0.67 78.44 0.49 75.24 0.49ZM118.6 0L111.1 0 104.05-11.96 101.09-9.91 101.09 0 94.23 0 94.23-36.23 101.09-36.23 101.09-15.48 110.51-26.42 117.89-26.42 108.61-16.11 118.6 0ZM135.29 0.49L135.29 0.49Q129.14 0.49 125.8-3.14 122.45-6.76 122.45-13.33L122.45-13.33Q122.45-17.72 124.03-20.75 125.6-23.78 128.51-25.34 131.41-26.9 135.39-26.9L135.39-26.9Q141.18-26.9 144.37-23.05 147.57-19.19 147.57-12.08L147.57-12.08 147.57-11.89 129.65-11.89Q129.65-8.3 131.25-6.2 132.85-4.1 135.63-4.1L135.63-4.1Q137.44-4.1 138.83-4.87 140.22-5.64 140.71-7.25L140.71-7.25 147.18-6.69Q145.84-3.25 142.71-1.38 139.59 0.49 135.29 0.49ZM135.29-22.58L135.29-22.58Q132.78-22.58 131.29-20.89 129.8-19.19 129.7-16.19L129.7-16.19 140.93-16.19Q140.76-19.12 139.26-20.85 137.76-22.58 135.29-22.58ZM157.97-8.2L158.02-21.78 153.94-21.78 153.94-26.42 158.36-26.42 160.51-33.3 164.81-33.3 164.81-26.42 174.21-26.42 174.21-21.78 164.81-21.78 164.81-8.84Q164.81-6.69 165.21-5.94 165.61-5.2 166.52-4.77 167.42-4.35 169.05-4.35L169.05-4.35Q172.08-4.35 175.28-5L175.28-5 175.28-0.46Q171.81 0.1 170.37 0.21 168.93 0.32 167.37 0.32L167.37 0.32Q164.27 0.32 162.18-0.52 160.09-1.37 159.03-3.16 157.97-4.96 157.97-8.2L157.97-8.2ZM197.81 0L192.25 0 192.25-16.06Q192.25-19.7 191.79-21.12 191.34-22.53 190.12-22.53L190.12-22.53Q188.88-22.53 188.16-20.24 187.44-17.94 187.44-14.21L187.44-14.21 187.44 0 181.85 0 181.85-20.78Q181.85-25.39 181.7-26.42L181.7-26.42 186.8-26.42 186.95-23.32 186.95-22.14 187-22.14Q187.83-24.63 189.1-25.77 190.37-26.9 192.27-26.9L192.27-26.9Q194.42-26.9 195.48-25.73 196.54-24.56 197.01-22.12L197.01-22.12 197.06-22.12Q198.03-24.71 199.39-25.81 200.74-26.9 202.82-26.9L202.82-26.9Q205.7-26.9 206.94-24.8 208.19-22.71 208.19-17.6L208.19-17.6 208.19 0 202.62 0 202.62-16.06Q202.62-19.7 202.17-21.12 201.72-22.53 200.5-22.53L200.5-22.53Q199.25-22.53 198.53-20.57 197.81-18.6 197.81-14.67L197.81-14.67 197.81 0ZM220.73 0.49L220.73 0.49Q216.9 0.49 214.75-1.6 212.6-3.69 212.6-7.47L212.6-7.47Q212.6-11.57 215.16-13.71 217.71-15.84 222.79-15.92L222.79-15.92 228.23-16.02 228.23-17.36Q228.23-19.87 227.38-21.17 226.52-22.46 224.62-22.46L224.62-22.46Q222.83-22.46 221.99-21.57 221.15-20.68 220.95-18.73L220.95-18.73 213.8-19.07Q215.12-26.9 224.91-26.9L224.91-26.9Q229.84-26.9 232.47-24.49 235.09-22.07 235.09-17.38L235.09-17.38 235.09-7.81Q235.09-5.59 235.59-4.75 236.09-3.91 237.26-3.91L237.26-3.91Q238.04-3.91 238.78-4.05L238.78-4.05 238.78-0.34Q238.17-0.2 237.68-0.07 237.19 0.05 236.7 0.12 236.21 0.2 235.66 0.24 235.11 0.29 234.38 0.29L234.38 0.29Q231.79 0.29 230.56-0.98 229.33-2.25 229.08-4.71L229.08-4.71 228.94-4.71Q227.4-1.95 225.43-0.73 223.47 0.49 220.73 0.49ZM228.23-10.89L228.23-12.23 224.96-12.18Q222.76-12.13 221.77-11.73 220.78-11.33 220.27-10.44 219.76-9.55 219.76-8.01L219.76-8.01Q219.76-4.3 222.69-4.3L222.69-4.3Q225.06-4.3 226.64-6.16 228.23-8.03 228.23-10.89L228.23-10.89ZM266.97 0L260.14 0 260.14-15.11Q260.14-18.55 259.2-20.17 258.26-21.78 255.96-21.78L255.96-21.78Q253.42-21.78 251.9-19.62 250.37-17.46 250.37-14.16L250.37-14.16 250.37 0 243.51 0 243.51-20.51Q243.51-22.63 243.45-23.99 243.39-25.34 243.31-26.42L243.31-26.42 249.86-26.42Q249.93-25.95 250.05-23.94 250.18-21.92 250.18-21.17L250.18-21.17 250.27-21.17Q251.66-24.19 253.76-25.56 255.86-26.93 258.77-26.93L258.77-26.93Q266.97-26.93 266.97-16.77L266.97-16.77 266.97 0Z" opacity="1" transform="matrix(1,0,0,1,0,0)" fill="#ffffff" class="wordmark-text-0" data-fill-palette-color="primary" id="text-0"></path></svg></g></svg></g></svg></g></svg></g><g><svg viewBox="0 0 97.79130618497624 97.79130618497624" height="97.79130618497624" width="97.79130618497624"><g><svg></svg></g><g id="icon-0"><svg viewBox="0 0 97.79130618497624 97.79130618497624" height="97.79130618497624" width="97.79130618497624"><g><path d="M0 48.896c0-27.004 21.891-48.896 48.896-48.896 27.004 0 48.896 21.891 48.895 48.896 0 27.004-21.891 48.896-48.895 48.895-27.004 0-48.896-21.891-48.896-48.895zM48.896 92.824c24.261 0 43.928-19.667 43.928-43.928 0-24.261-19.667-43.928-43.928-43.928-24.261 0-43.928 19.667-43.928 43.928 0 24.261 19.667 43.928 43.928 43.928z" data-fill-palette-color="accent" fill="#ffffff" stroke="transparent"></path><ellipse rx="48.40669656156324" ry="48.40669656156324" cx="48.89565309248812" cy="48.89565309248812" fill="#ffffff" stroke="transparent" stroke-width="0" fill-opacity="1" data-fill-palette-color="accent"></ellipse></g><g transform="matrix(1,0,0,1,28.52494078811233,24.40172433987658)"><svg viewBox="0 0 40.74142460875158 48.987857505223076" height="48.987857505223076" width="40.74142460875158"><g><svg xmlns="http://www.w3.org/2000/svg" xmlns:xlink="http://www.w3.org/1999/xlink" version="1.1" x="0" y="0" viewBox="9.64 1 81.36 97.828" enable-background="new 0 0 100 100" xml:space="preserve" height="48.987857505223076" width="40.74142460875158" class="icon-dxe-0" data-fill-palette-color="quaternary" id="dxe-0"><g fill="#ffffff" data-fill-palette-color="quaternary"><g fill="#ffffff" data-fill-palette-color="quaternary"><path fill="#000000" d="M71.15 55.636C79.794 46.181 84.623 37.095 87.28 29.174 87.28 29.198 87.28 29.198 87.288 29.214 87.288 29.214 88.357 26.425 89.196 22.035 89.258 21.743 89.3 21.476 89.355 21.181 89.418 20.813 89.483 20.434 89.539 20.048 90.568 13.655 90.226 8.603 89.778 5.626 89.921 5.491 90.073 5.323 90.216 5.131 90.743 4.468 90.968 3.782 90.736 3.599L90.456 3.387 91 1 88.413 1.818 88.07 1.562C87.831 1.387 87.224 1.786 86.706 2.448 86.602 2.591 86.506 2.728 86.426 2.863 86.426 2.863 76.953 3.158 65.994 10.118H66.011C50.687 19.568 43.44 34.428 43.44 34.428 15.801 30.718 9.64 56.449 9.64 56.449 63.513 53.289 56.369 93.992 56.369 93.992 79.945 83.649 71.15 55.636 71.15 55.636M69.371 41.524C66.928 44.214 62.81 44.92 59.482 43.001 55.667 40.806 54.334 36.01 56.504 32.291 56.768 31.828 57.079 31.417 57.422 31.038 59.856 28.348 63.974 27.645 67.31 29.561 71.118 31.748 72.459 36.548 70.289 40.272A8 8 0 0 1 69.371 41.524" data-fill-palette-color="quaternary"></path><path fill="#000000" d="M30.949 97.333C44.245 92.504 49.082 74.949 49.082 74.949 34.956 81.278 30.949 97.333 30.949 97.333" data-fill-palette-color="quaternary"></path><path fill="#000000" d="M16.806 98.828C34.429 92.324 40.758 68.428 40.758 68.428 22.051 76.96 16.806 98.828 16.806 98.828" data-fill-palette-color="quaternary"></path><path fill="#000000" d="M14.292 84.28C27.589 79.459 32.426 61.908 32.426 61.908 18.307 68.226 14.292 84.28 14.292 84.28" data-fill-palette-color="quaternary"></path></g></g></svg></g></svg></g></svg></g></svg></g></svg></g><defs></defs></svg><rect width="395.52" height="74.47900158630803" fill="none" stroke="none" visibility="hidden"></rect></g></svg></g></svg>